# xmcd
# 
# Track frame offsets:
#     150
#     17837
#     45581
#     69203
#     88487
#     108435
#     126253
#     141756
#     163903
#     185422
# 
# Disc length: 2715
# 
# Revision: 0
# Processed by: cddbd v1.5.2PL0 Copyright (c) Steve Scherf et al.
# Submitted via: BonkEnc v1.0.8
# 
DISCID=8b0a990a
DTITLE=Ramblin' Jack Elliott - A Stranger Here
DYEAR=2009
DGENRE=Blues
TTITLE0=Rising High Water Blues
TTITLE1=Death Don't Have No Mercy
TTITLE2=Rambler's Blues
TTITLE3=Soul of a Man
TTITLE4=Richland Women Blues
TTITLE5=Grinnin' in Your Face
TTITLE6=The New Strangers Blues
TTITLE7=Falling Down Blues
TTITLE8=How Long Blues
TTITLE9=Please Remember Me
EXTD=
EXTT0=
EXTT1=
EXTT2=
EXTT3=
EXTT4=
EXTT5=
EXTT6=
EXTT7=
EXTT8=
EXTT9=
PLAYORDER=
